<svg xmlns="http://www.w3.org/2000/svg" version="1.1" xmlns:xlink="http://www.w3.org/1999/xlink" xmlns:svgjs="http://svgjs.dev/svgjs" width="2000" height="631" viewBox="0 0 2000 631"><g transform="matrix(1,0,0,1,-1.2121212121212466,-0.6672633786147344)"><svg viewBox="0 0 396 125" data-background-color="#ffffff" preserveAspectRatio="xMidYMid meet" height="631" width="2000" xmlns="http://www.w3.org/2000/svg" xmlns:xlink="http://www.w3.org/1999/xlink"><g id="tight-bounds" transform="matrix(1,0,0,1,0.2400000000000091,0.13218371208691337)"><svg viewBox="0 0 395.52 124.73563233681716" height="124.73563233681716" width="395.52"><g><svg viewBox="0 0 624.6530418404345 196.99760357272177" height="124.73563233681716" width="395.52"><g transform="matrix(1,0,0,1,229.1330418404345,71.27414678736672)"><svg viewBox="0 0 395.52 54.44930999798833" height="54.44930999798833" width="395.52"><g id="textblocktransform"><svg viewBox="0 0 395.52 54.44930999798833" height="54.44930999798833" width="395.52" id="textblock"><g><svg viewBox="0 0 395.52 54.44930999798833" height="54.44930999798833" width="395.52"><g transform="matrix(1,0,0,1,0,0)"><svg width="395.52" viewBox="3.91 -38.38 364.04999999999995 50.120000000000005" height="54.44930999798833" data-palette-color="#ffaa76"><path d="M11.79-25.56L11.79-25.56 11.79-20 20.46-20Q21.04-20 21.34-19.8L21.34-19.8Q21.97-19.36 22.66-18.75 23.34-18.14 24.1-17.29L24.1-17.29Q24.34-16.97 24.34-16.77L24.34-16.77Q24.34-16.55 24.1-16.28L24.1-16.28Q23.34-15.43 22.66-14.82 21.97-14.21 21.34-13.77L21.34-13.77Q21-13.57 20.46-13.57L20.46-13.57 11.79-13.57 11.79-1.29Q11.79-0.56 11.49-0.28 11.18 0 10.45 0L10.45 0 5.25 0Q4.52 0 4.21-0.28 3.91-0.56 3.91-1.29L3.91-1.29 3.91-28.47Q3.91-30.91 4.36-32.34 4.81-33.76 6.12-34.39 7.42-35.01 9.94-35.01L9.94-35.01 21.46-35.01Q22.05-35.01 22.34-34.81L22.34-34.81Q22.97-34.38 23.66-33.76 24.34-33.15 25.1-32.3L25.1-32.3Q25.34-31.98 25.34-31.79L25.34-31.79Q25.34-31.57 25.1-31.3L25.1-31.3Q24.34-30.44 23.66-29.83 22.97-29.22 22.34-28.78L22.34-28.78Q22-28.59 21.46-28.59L21.46-28.59 14.58-28.59Q12.96-28.59 12.38-27.91 11.79-27.22 11.79-25.56ZM45.36 0.61L45.36 0.61Q40.28 0.61 36.52-1.34 32.76-3.3 30.7-7.23 28.64-11.16 28.64-17.04L28.64-17.04Q28.64-26.39 33.2-30.99 37.77-35.6 45.92-35.6L45.92-35.6Q53.56-35.6 58.01-31.09 62.45-26.59 62.45-17.75L62.45-17.75Q62.45-11.5 60.37-7.43 58.3-3.37 54.47-1.38 50.63 0.61 45.36 0.61ZM45.51-5.98L45.51-5.98Q49.9-5.98 52.02-9.13 54.15-12.28 54.15-17.31L54.15-17.31Q54.15-23.14 52.15-26.07 50.14-29 45.7-29L45.7-29Q36.94-29 36.94-17.46L36.94-17.46Q36.94-12.3 39.05-9.14 41.16-5.98 45.51-5.98ZM83.56 0.61L83.56 0.61Q78.49 0.61 74.73-1.34 70.97-3.3 68.9-7.23 66.84-11.16 66.84-17.04L66.84-17.04Q66.84-26.39 71.41-30.99 75.97-35.6 84.13-35.6L84.13-35.6Q91.77-35.6 96.21-31.09 100.65-26.59 100.65-17.75L100.65-17.75Q100.65-11.5 98.58-7.43 96.5-3.37 92.67-1.38 88.84 0.61 83.56 0.61ZM83.71-5.98L83.71-5.98Q88.11-5.98 90.23-9.13 92.35-12.28 92.35-17.31L92.35-17.31Q92.35-23.14 90.35-26.07 88.35-29 83.91-29L83.91-29Q75.14-29 75.14-17.46L75.14-17.46Q75.14-12.3 77.25-9.14 79.37-5.98 83.71-5.98ZM120.28 0L112.79 0Q110.27 0 108.96-0.63 107.66-1.27 107.21-2.71 106.76-4.15 106.76-6.54L106.76-6.54 106.76-28.47Q106.76-30.91 107.21-32.34 107.66-33.76 108.96-34.39 110.27-35.01 112.79-35.01L112.79-35.01 120.28-35.01Q125.53-35.01 129.47-33.45 133.42-31.88 135.61-28.16 137.81-24.44 137.81-17.94L137.81-17.94Q137.81-11.45 135.61-7.51 133.42-3.56 129.47-1.78 125.53 0 120.28 0L120.28 0ZM118.5-28.59L117.42-28.59Q115.81-28.59 115.23-27.91 114.64-27.22 114.64-25.56L114.64-25.56 114.64-9.45Q114.64-7.81 115.23-7.1 115.81-6.4 117.42-6.4L117.42-6.4 118.55-6.4Q123.77-6.4 126.64-8.96 129.51-11.52 129.51-17.85L129.51-17.85Q129.51-22.07 128.2-24.4 126.9-26.73 124.43-27.66 121.97-28.59 118.5-28.59L118.5-28.59ZM142.18-33.2L142.18-33.2Q142.18-33.52 142.37-33.76 142.57-34.01 142.89-34.4L142.89-34.4Q143.57-35.18 144.47-36.05 145.38-36.91 146.3-37.72L146.3-37.72Q146.89-38.18 147.18-38.18L147.18-38.18Q147.48-38.18 148.09-37.72L148.09-37.72Q150.06-36.01 151.45-34.4L151.45-34.4Q151.77-34.03 151.98-33.78 152.19-33.52 152.19-33.2L152.19-33.2Q152.19-32.89 151.98-32.64 151.77-32.4 151.43-31.98L151.43-31.98Q150.77-31.23 149.89-30.36 149.01-29.49 148.09-28.71L148.09-28.71Q147.74-28.42 147.55-28.33 147.35-28.25 147.18-28.25L147.18-28.25Q147.01-28.25 146.83-28.33 146.65-28.42 146.25-28.71L146.25-28.71Q145.28-29.49 144.42-30.36 143.57-31.23 142.89-32.03L142.89-32.03Q142.57-32.42 142.37-32.65 142.18-32.89 142.18-33.2ZM151.02-23.71L151.02-1.29Q151.02-0.56 150.71-0.28 150.41 0 149.67 0L149.67 0 144.64 0Q143.91 0 143.61-0.28 143.3-0.56 143.3-1.29L143.3-1.29 143.3-23.71Q143.3-24.44 143.61-24.72 143.91-25 144.64-25L144.64-25 149.67-25Q150.41-25 150.71-24.72 151.02-24.44 151.02-23.71L151.02-23.71ZM169.91 0.61L169.91 0.61Q165.78 0.61 162.73-0.72 159.68-2.05 158-4.86 156.31-7.67 156.31-12.11L156.31-12.11Q156.31-18.77 159.73-22.19 163.15-25.61 168.81-25.61L168.81-25.61Q172.5-25.61 175.05-24.29 177.6-22.97 178.93-20.65 180.26-18.33 180.26-15.36L180.26-15.36Q180.26-12.45 178.77-11.3 177.28-10.16 174.43-10.16L174.43-10.16 163.95-10.16Q164.15-7.64 165.8-6.32 167.44-5 170.28-5L170.28-5Q172.52-5 173.88-5.68 175.23-6.35 175.77-6.74L175.77-6.74Q176.23-7.08 176.82-7.06L176.82-7.06Q177.28-7.06 178.15-6.87 179.02-6.69 179.87-6.2L179.87-6.2Q180.48-5.88 180.48-5.32L180.48-5.32Q180.48-5 180.36-4.42L180.36-4.42Q180.29-4.08 180.11-3.43 179.94-2.78 179.68-2.22L179.68-2.22Q179.53-1.95 179.21-1.71L179.21-1.71Q178.72-1.37 177.64-0.81 176.55-0.24 174.67 0.18 172.79 0.61 169.91 0.61ZM163.9-15.16L163.9-15.16 171.86-15.16Q173.11-15.16 173.11-16.31L173.11-16.31Q173.11-18.04 172.02-19.23 170.93-20.41 168.76-20.41L168.76-20.41Q166.39-20.41 165.28-18.9 164.17-17.38 163.9-15.16ZM199.77 0L192.27 0Q189.76 0 188.45-0.63 187.14-1.27 186.69-2.71 186.24-4.15 186.24-6.54L186.24-6.54 186.24-28.47Q186.24-30.91 186.69-32.34 187.14-33.76 188.45-34.39 189.76-35.01 192.27-35.01L192.27-35.01 199.77-35.01Q205.01-35.01 208.96-33.45 212.9-31.88 215.1-28.16 217.29-24.44 217.29-17.94L217.29-17.94Q217.29-11.45 215.1-7.51 212.9-3.56 208.96-1.78 205.01 0 199.77 0L199.77 0ZM197.98-28.59L196.91-28.59Q195.3-28.59 194.71-27.91 194.13-27.22 194.13-25.56L194.13-25.56 194.13-9.45Q194.13-7.81 194.71-7.1 195.3-6.4 196.91-6.4L196.91-6.4 198.03-6.4Q203.26-6.4 206.13-8.96 208.99-11.52 208.99-17.85L208.99-17.85Q208.99-22.07 207.69-24.4 206.38-26.73 203.92-27.66 201.45-28.59 197.98-28.59L197.98-28.59ZM235.04 0.61L235.04 0.61Q230.92 0.61 227.86-0.72 224.81-2.05 223.13-4.86 221.44-7.67 221.44-12.11L221.44-12.11Q221.44-18.77 224.86-22.19 228.28-25.61 233.94-25.61L233.94-25.61Q237.63-25.61 240.18-24.29 242.73-22.97 244.06-20.65 245.39-18.33 245.39-15.36L245.39-15.36Q245.39-12.45 243.9-11.3 242.41-10.16 239.56-10.16L239.56-10.16 229.08-10.16Q229.28-7.64 230.93-6.32 232.58-5 235.41-5L235.41-5Q237.65-5 239.01-5.68 240.36-6.35 240.9-6.74L240.9-6.74Q241.36-7.08 241.95-7.06L241.95-7.06Q242.41-7.06 243.28-6.87 244.15-6.69 245-6.2L245-6.2Q245.61-5.88 245.61-5.32L245.61-5.32Q245.61-5 245.49-4.42L245.49-4.42Q245.42-4.08 245.25-3.43 245.08-2.78 244.81-2.22L244.81-2.22Q244.66-1.95 244.34-1.71L244.34-1.71Q243.85-1.37 242.77-0.81 241.68-0.24 239.8 0.18 237.92 0.61 235.04 0.61ZM229.04-15.16L229.04-15.16 236.99-15.16Q238.24-15.16 238.24-16.31L238.24-16.31Q238.24-18.04 237.15-19.23 236.07-20.41 233.89-20.41L233.89-20.41Q231.53-20.41 230.41-18.9 229.3-17.38 229.04-15.16ZM259.06-1.83L253.96 0.51Q253.45 0.73 253.23 0.73L253.23 0.73Q253.01 0.73 252.76 0.56L252.76 0.56Q252.2 0.17 251.48-1.35 250.76-2.88 250.76-6.05L250.76-6.05 250.76-34.33Q250.76-34.91 251.01-35.23L251.01-35.23Q252.03-36.57 254.01-38.13L254.01-38.13Q254.35-38.38 254.62-38.38L254.62-38.38Q254.94-38.38 255.23-38.13L255.23-38.13Q256.28-37.33 257-36.62 257.72-35.91 258.23-35.23L258.23-35.23Q258.48-34.91 258.48-34.33L258.48-34.33 258.48-7.54Q258.48-5.93 258.74-4.8 259.01-3.66 259.38-2.98L259.38-2.98Q259.79-2.17 259.06-1.83L259.06-1.83ZM264.04-33.2L264.04-33.2Q264.04-33.52 264.24-33.76 264.43-34.01 264.75-34.4L264.75-34.4Q265.43-35.18 266.33-36.05 267.24-36.91 268.17-37.72L268.17-37.72Q268.75-38.18 269.04-38.18L269.04-38.18Q269.34-38.18 269.95-37.72L269.95-37.72Q271.93-36.01 273.32-34.4L273.32-34.4Q273.63-34.03 273.84-33.78 274.05-33.52 274.05-33.2L274.05-33.2Q274.05-32.89 273.84-32.64 273.63-32.4 273.29-31.98L273.29-31.98Q272.63-31.23 271.75-30.36 270.88-29.49 269.95-28.71L269.95-28.71Q269.61-28.42 269.41-28.33 269.22-28.25 269.04-28.25L269.04-28.25Q268.87-28.25 268.69-28.33 268.51-28.42 268.12-28.71L268.12-28.71Q267.14-29.49 266.29-30.36 265.43-31.23 264.75-32.03L264.75-32.03Q264.43-32.42 264.24-32.65 264.04-32.89 264.04-33.2ZM272.88-23.71L272.88-1.29Q272.88-0.56 272.57-0.28 272.27 0 271.54 0L271.54 0 266.51 0Q265.77 0 265.47-0.28 265.16-0.56 265.16-1.29L265.16-1.29 265.16-23.71Q265.16-24.44 265.47-24.72 265.77-25 266.51-25L266.51-25 271.54-25Q272.27-25 272.57-24.72 272.88-24.44 272.88-23.71L272.88-23.71ZM303.69-22.66L303.69-22.66 303.69-2.86Q303.69 4.27 299.62 8.01 295.56 11.74 288.48 11.74L288.48 11.74Q285.55 11.74 283.84 11.32 282.13 10.89 281.25 10.5L281.25 10.5Q280.69 10.23 280.52 9.94L280.52 9.94Q280.27 9.55 279.97 8.79 279.66 8.03 279.39 7.13L279.39 7.13Q279.32 6.79 279.37 6.62L279.37 6.62Q279.47 6.37 279.74 6.1L279.74 6.1Q280.18 5.66 280.99 5.08 281.81 4.49 282.25 4.32L282.25 4.32Q282.71 4.15 283.1 4.37L283.1 4.37Q283.74 4.71 284.92 5.14 286.11 5.57 288.26 5.57L288.26 5.57Q291.67 5.57 293.82 3.81 295.97 2.05 295.97-1.61L295.97-1.61 295.97-2.49 295.87-2.49Q295.34-1.81 294.48-1.1 293.63-0.39 292.27 0.1 290.92 0.59 288.79 0.59L288.79 0.59Q285.11 0.59 282.75-1.01 280.39-2.61 279.28-5.42 278.17-8.23 278.17-11.82L278.17-11.82Q278.17-15.75 279.47-18.87 280.76-22 283.81-23.82 286.86-25.63 292.16-25.63L292.16-25.63Q295.34-25.63 297.5-25.17 299.66-24.71 301.12-24.02 302.59-23.34 303.69-22.66ZM291.89-19.73L291.89-19.73Q289.06-19.73 287.57-17.82 286.08-15.92 286.08-11.91L286.08-11.91Q286.08-5.64 291.26-5.64L291.26-5.64Q293.29-5.64 294.36-6.47 295.43-7.3 295.97-8.57L295.97-8.57 295.97-18.65Q295.43-19.04 294.46-19.38 293.48-19.73 291.89-19.73ZM317.99-16.46L317.99-1.29Q317.99-0.56 317.68-0.28 317.38 0 316.65 0L316.65 0 311.62 0Q310.89 0 310.58-0.28 310.28-0.56 310.28-1.29L310.28-1.29 310.28-34.33Q310.28-34.91 310.52-35.23L310.52-35.23Q311.54-36.57 313.52-38.13L313.52-38.13Q313.86-38.38 314.13-38.38L314.13-38.38Q314.45-38.38 314.74-38.13L314.74-38.13Q315.79-37.33 316.51-36.62 317.23-35.91 317.75-35.23L317.75-35.23Q317.99-34.91 317.99-34.33L317.99-34.33 317.99-22.49 318.09-22.49Q318.62-23.19 319.48-23.91 320.33-24.63 321.76-25.12 323.19-25.61 325.41-25.61L325.41-25.61Q327.66-25.61 329.73-24.68 331.81-23.75 333.13-21.56 334.45-19.36 334.45-15.55L334.45-15.55 334.45-1.29Q334.45-0.56 334.14-0.28 333.83 0 333.1 0L333.1 0 328.07 0Q327.34 0 327.04-0.28 326.73-0.56 326.73-1.29L326.73-1.29 326.73-14.21Q326.73-16.92 325.61-18.15 324.48-19.38 322.56-19.38L322.56-19.38Q320.65-19.38 319.6-18.55 318.55-17.72 317.99-16.46L317.99-16.46ZM356.78-28.59L356.78-1.29Q356.78-0.56 356.48-0.28 356.17 0 355.44 0L355.44 0 350.24 0Q349.51 0 349.2-0.28 348.9-0.56 348.9-1.29L348.9-1.29 348.9-28.59 341.62-28.59Q341.03-28.59 340.74-28.78L340.74-28.78Q340.11-29.22 339.44-29.83 338.76-30.44 337.98-31.3L337.98-31.3Q337.74-31.62 337.74-31.81L337.74-31.81Q337.74-32.03 337.98-32.3L337.98-32.3Q338.76-33.15 339.44-33.76 340.11-34.38 340.74-34.81L340.74-34.81Q341.08-35.01 341.62-35.01L341.62-35.01 364.08-35.01Q364.67-35.01 364.96-34.81L364.96-34.81Q365.6-34.38 366.28-33.76 366.96-33.15 367.72-32.3L367.72-32.3Q367.96-31.98 367.96-31.79L367.96-31.79Q367.96-31.57 367.72-31.3L367.72-31.3Q366.96-30.44 366.28-29.83 365.6-29.22 364.96-28.78L364.96-28.78Q364.62-28.59 364.08-28.59L364.08-28.59 356.78-28.59Z" opacity="1" transform="matrix(1,0,0,1,0,0)" fill="#ffaa76" class="wordmark-text-0" data-fill-palette-color="primary" id="text-0"></path></svg></g></svg></g></svg></g></svg></g><g><svg viewBox="0 0 196.99760357272177 196.99760357272177" height="196.99760357272177" width="196.99760357272177"><g><svg viewBox="0 0 196.99760357272177 196.99760357272177" height="196.99760357272177" width="196.99760357272177"><g transform="matrix(1,0,0,1,52.06602133177062,52.093894220181696)"><svg viewBox="0 0 92.86556090918053 92.80981513235838" height="92.80981513235838" width="92.86556090918053"><g><svg xmlns="http://www.w3.org/2000/svg" xmlns:xlink="http://www.w3.org/1999/xlink" version="1.1" x="0" y="0" viewBox="0 0.019209110900146736 32 31.980790889099854" enable-background="new 0 0 32 32" xml:space="preserve" height="92.80981513235838" width="92.86556090918053" class="icon-dxe-0" data-fill-palette-color="accent" id="dxe-0"><g fill="#ffaa76" data-fill-palette-color="accent"><path fill="#ffaa76" d="M29.5 21H26.809C26.764 20.761 26.709 20.527 26.649 20.294L31.448 17.895A1.001 1.001 0 0 0 30.553 16.106L25.975 18.394C24.229 14.626 20.42 12 16 12 10.618 12 6.135 15.888 5.191 21H2.5A2.503 2.503 0 0 0 0 23.5C0 23.99 0.18 24.463 0.505 24.829L4 28.761V29.5C4 30.879 5.122 32 6.5 32H25.5C26.879 32 28 30.879 28 29.5V28.761L31.494 24.829C31.82 24.463 32 23.99 32 23.5 32 22.121 30.879 21 29.5 21M25.799 21H25.237L25.735 20.75C25.754 20.834 25.781 20.915 25.799 21M16 13C20.029 13 23.5 15.4 25.082 18.841L24.191 19.286C22.775 16.171 19.645 14 16 14 11.718 14 8.141 16.993 7.23 21H6.202C7.131 16.441 11.171 13 16 13M20.576 21C19.803 19.237 18.045 18 16 18S12.198 19.237 11.424 21H10.35C11.176 18.674 13.393 17 16 17A6.01 6.01 0 0 1 21.508 20.627L20.764 21zM16 20C15.117 20 14.33 20.391 13.78 21H12.556C13.25 19.811 14.526 19 16 19S18.75 19.811 19.443 21H18.218A2.98 2.98 0 0 0 16 20M16 16C12.835 16 10.158 18.112 9.295 21H8.263C9.155 17.556 12.28 15 16 15 19.246 15 22.043 16.948 23.295 19.734L22.402 20.18C21.314 17.723 18.855 16 16 16M26 28V29.5A0.5 0.5 0 0 1 25.5 30H6.5A0.5 0.5 0 0 1 6 29.5V28L2 23.5A0.5 0.5 0 0 1 2.5 23H29.5A0.5 0.5 0 0 1 30 23.5z" data-fill-palette-color="accent"></path><path fill="#ffaa76" d="M7.977 11.712L7.985 11.73H7.987C8.07 11.89 8.236 12 8.43 12A0.503 0.503 0 0 0 8.914 11.372 0.03 0.03 0 0 0 8.914 11.352C8.539 10.47 8.895 9.502 9.333 8.46 9.806 7.334 10.313 6.084 9.755 4.813A0.49 0.49 0 0 0 8.842 5.165L8.845 5.174 8.85 5.186C9.254 6.095 8.863 7.027 8.422 8.079 7.956 9.188 7.44 10.417 7.959 11.67z" data-fill-palette-color="accent"></path><path fill="#ffaa76" d="M20.154 11.566L20.162 11.584H20.164A0.501 0.501 0 0 0 21.093 11.227 0.02 0.02 0 0 0 21.091 11.207C20.718 10.325 21.073 9.357 21.511 8.315 21.984 7.189 22.491 5.939 21.933 4.668A0.49 0.49 0 0 0 21.019 5.014V5.02L21.023 5.029 21.027 5.041C21.431 5.95 21.041 6.882 20.599 7.934 20.134 9.043 19.619 10.273 20.138 11.526z" data-fill-palette-color="accent"></path><path fill="#ffaa76" d="M15.019 7.212L15.027 7.23H15.029A0.501 0.501 0 0 0 15.974 6.998 0.5 0.5 0 0 0 15.956 6.873 0.03 0.03 0 0 0 15.956 6.853C15.581 5.971 15.937 5.003 16.375 3.961 16.848 2.835 17.355 1.585 16.797 0.314A0.49 0.49 0 0 0 15.883 0.665L15.886 0.674 15.89 0.686C16.294 1.595 15.903 2.527 15.462 3.579 14.996 4.688 14.48 5.918 15 7.171z" data-fill-palette-color="accent"></path></g></svg></g></svg></g><g id="text-0"><path d="M7.301 70.112v0l2.382 0.769 1.194-3.702c0.053-0.165 0.122-0.282 0.208-0.352v0c0.177-0.138 0.386-0.277 0.627-0.416 0.234-0.141 0.509-0.279 0.825-0.414v0c0.111-0.041 0.195-0.052 0.252-0.034v0c0.063 0.02 0.122 0.078 0.175 0.171v0c0.171 0.293 0.314 0.566 0.427 0.819 0.108 0.251 0.196 0.486 0.266 0.704v0c0.024 0.12 0.012 0.255-0.037 0.407v0l-1.194 3.701 5.248 1.693c0.209 0.067 0.337 0.158 0.384 0.271 0.054 0.115 0.047 0.277-0.02 0.485v0l-0.716 2.221c-0.067 0.209-0.155 0.341-0.265 0.397-0.104 0.064-0.261 0.062-0.47-0.005v0l-11.606-3.744c-0.696-0.224-1.229-0.466-1.6-0.725-0.362-0.263-0.572-0.607-0.631-1.031-0.057-0.43 0.03-1.003 0.261-1.718v0l1.588-4.926c0.053-0.165 0.122-0.282 0.208-0.352v0c0.184-0.136 0.393-0.275 0.627-0.416 0.24-0.139 0.516-0.277 0.825-0.415v0c0.111-0.041 0.195-0.052 0.252-0.034v0c0.063 0.02 0.122 0.078 0.175 0.172v0c0.177 0.295 0.32 0.568 0.428 0.819 0.108 0.251 0.196 0.486 0.265 0.704v0c0.024 0.12 0.012 0.255-0.037 0.407v0l-0.949 2.942c-0.147 0.456-0.15 0.8-0.009 1.034 0.143 0.228 0.449 0.417 0.917 0.568z" fill="#ffaa76" data-fill-palette-color="accent"></path><path d="M26.903 56.01v0c-0.783 1.305-1.712 2.291-2.785 2.957-1.08 0.663-2.283 0.956-3.61 0.881-1.327-0.075-2.746-0.566-4.257-1.472v0c-2.4-1.44-3.84-3.098-4.319-4.974-0.476-1.882-0.086-3.869 1.169-5.961v0c1.176-1.961 2.682-3.166 4.518-3.616 1.841-0.446 3.896 0.012 6.165 1.372v0c1.602 0.961 2.766 2.019 3.491 3.176 0.722 1.162 1.045 2.387 0.97 3.675-0.084 1.291-0.532 2.611-1.342 3.962zM24.403 54.441v0c0.677-1.129 0.775-2.21 0.293-3.243-0.485-1.027-1.371-1.927-2.659-2.7v0c-1.499-0.899-2.779-1.318-3.839-1.256-1.06 0.062-1.932 0.663-2.617 1.802v0c-1.347 2.246-0.539 4.258 2.426 6.037v0c1.323 0.793 2.551 1.162 3.685 1.106 1.14-0.053 2.044-0.635 2.711-1.746z" fill="#ffaa76" data-fill-palette-color="accent"></path><path d="M40.391 39.306v0c-1.088 1.065-2.236 1.783-3.444 2.155-1.212 0.367-2.451 0.347-3.716-0.063-1.265-0.409-2.513-1.243-3.745-2.502v0c-1.957-2.001-2.93-3.969-2.917-5.906 0.017-1.941 0.897-3.765 2.641-5.471v0c1.635-1.599 3.397-2.383 5.287-2.353 1.894 0.035 3.766 0.998 5.616 2.89v0c1.306 1.335 2.164 2.654 2.572 3.956 0.404 1.307 0.406 2.574 0.008 3.8-0.408 1.227-1.176 2.392-2.303 3.494zM38.369 37.154v0c0.941-0.92 1.31-1.941 1.106-3.062-0.209-1.116-0.838-2.212-1.889-3.286v0c-1.223-1.25-2.354-1.979-3.396-2.188-1.041-0.209-2.037 0.151-2.987 1.081v0c-1.872 1.832-1.6 3.983 0.817 6.454v0c1.078 1.103 2.173 1.77 3.285 2.004 1.116 0.238 2.138-0.096 3.064-1.003z" fill="#ffaa76" data-fill-palette-color="accent"></path><path d="M56.965 26.597l-2.917 1.689c-0.65 0.377-1.193 0.58-1.629 0.609-0.427 0.032-0.809-0.104-1.146-0.407-0.332-0.307-0.677-0.772-1.037-1.393v0l-4.928-8.508c-0.367-0.633-0.601-1.169-0.703-1.61-0.092-0.438-0.018-0.834 0.222-1.189 0.246-0.358 0.694-0.725 1.345-1.101v0l2.916-1.689c1.358-0.786 2.662-1.273 3.914-1.46 1.261-0.185 2.454 0.038 3.579 0.669 1.129 0.637 2.18 1.795 3.154 3.474v0c0.976 1.685 1.475 3.202 1.494 4.551 0.024 1.354-0.343 2.557-1.1 3.61-0.752 1.05-1.806 1.968-3.164 2.755zM49.834 15.896l-0.415 0.24c-0.414 0.24-0.647 0.494-0.699 0.763-0.046 0.265 0.054 0.61 0.3 1.035v0l3.629 6.265c0.243 0.42 0.493 0.679 0.749 0.776 0.262 0.094 0.6 0.021 1.014-0.219v0l0.44-0.255c1.352-0.783 2.207-1.72 2.566-2.811 0.356-1.097 0.06-2.463-0.886-4.096v0c-0.636-1.099-1.298-1.849-1.983-2.251-0.683-0.411-1.414-0.552-2.193-0.424-0.778 0.128-1.619 0.454-2.522 0.977z" fill="#ffaa76" data-fill-palette-color="accent"></path><path d="M65.396 6.178v0c-0.03-0.088-0.028-0.176 0.005-0.265 0.027-0.086 0.068-0.202 0.125-0.347v-0.001c0.114-0.284 0.259-0.593 0.434-0.925 0.175-0.333 0.356-0.658 0.544-0.974v0c0.119-0.188 0.219-0.295 0.301-0.323v0c0.082-0.028 0.233-0.005 0.454 0.067v0c0.725 0.295 1.359 0.603 1.903 0.925v0c0.131 0.075 0.237 0.141 0.319 0.197 0.08 0.05 0.135 0.119 0.165 0.207v0c0.032 0.094 0.031 0.186-0.002 0.274-0.033 0.088-0.081 0.206-0.143 0.354v0c-0.11 0.276-0.25 0.579-0.418 0.91-0.162 0.329-0.338 0.651-0.526 0.968v0c-0.073 0.116-0.13 0.195-0.172 0.237-0.05 0.038-0.101 0.066-0.151 0.083v0c-0.05 0.017-0.104 0.025-0.161 0.023-0.059-0.008-0.159-0.034-0.3-0.078v0c-0.354-0.133-0.692-0.282-1.014-0.446-0.329-0.162-0.626-0.325-0.891-0.488v0c-0.131-0.075-0.233-0.139-0.307-0.191-0.078-0.044-0.133-0.113-0.165-0.207zM70.524 8.948l3.226 9.53c0.07 0.208 0.074 0.364 0.011 0.47-0.06 0.112-0.195 0.203-0.402 0.273v0l-2.135 0.722c-0.208 0.07-0.37 0.08-0.485 0.028-0.114-0.046-0.206-0.172-0.276-0.38v0l-3.226-9.53c-0.07-0.208-0.075-0.368-0.015-0.48 0.063-0.105 0.198-0.193 0.405-0.263v0l2.135-0.723c0.208-0.07 0.369-0.083 0.482-0.037 0.116 0.052 0.209 0.182 0.28 0.39z" fill="#ffaa76" data-fill-palette-color="accent"></path><path d="M87.165 16.584v0c-1.222 0.189-2.313 0.159-3.273-0.09-0.961-0.255-1.756-0.761-2.384-1.518-0.627-0.751-1.042-1.783-1.245-3.097v0c-0.305-1.971-0.029-3.54 0.825-4.708 0.855-1.168 2.121-1.882 3.796-2.141v0c1.091-0.169 2.04-0.117 2.85 0.155 0.816 0.277 1.475 0.727 1.974 1.349 0.501 0.629 0.819 1.383 0.955 2.264v0c0.133 0.861 0.005 1.493-0.383 1.896-0.387 0.41-1.005 0.68-1.852 0.811v0l-4.641 0.717c0.174 0.733 0.534 1.256 1.08 1.569 0.547 0.319 1.241 0.414 2.082 0.284v0c0.664-0.103 1.18-0.287 1.549-0.553 0.37-0.259 0.626-0.457 0.766-0.592v0c0.122-0.126 0.268-0.2 0.44-0.22v0c0.138-0.021 0.34-0.022 0.605-0.003 0.264 0.013 0.533 0.072 0.805 0.179v0c0.198 0.064 0.31 0.177 0.335 0.342v0c0.015 0.099 0.016 0.236 0.003 0.413v0c-0.004 0.102-0.018 0.255-0.04 0.46-0.017 0.198-0.052 0.385-0.105 0.561v0c-0.034 0.086-0.091 0.172-0.171 0.259v0c-0.129 0.121-0.342 0.292-0.638 0.512-0.297 0.214-0.714 0.427-1.253 0.638-0.533 0.21-1.226 0.381-2.08 0.513zM83.424 10.008v0l3.528-0.545c0.368-0.057 0.525-0.256 0.473-0.598v0c-0.079-0.512-0.307-0.918-0.683-1.216-0.377-0.305-0.887-0.408-1.531-0.308v0c-0.696 0.108-1.174 0.41-1.433 0.907-0.258 0.504-0.376 1.091-0.354 1.76z" fill="#ffaa76" data-fill-palette-color="accent"></path><path d="M105.173 15.929l-3.363-0.232c-0.749-0.052-1.313-0.187-1.691-0.406-0.372-0.212-0.613-0.539-0.722-0.98-0.103-0.44-0.13-1.018-0.08-1.734v0l0.677-9.809c0.05-0.73 0.157-1.305 0.319-1.727 0.169-0.415 0.452-0.702 0.849-0.861 0.404-0.159 0.981-0.212 1.73-0.161v0l3.362 0.232c1.565 0.108 2.919 0.435 4.061 0.98 1.148 0.552 2.012 1.405 2.592 2.558 0.58 1.159 0.803 2.707 0.669 4.644v0c-0.134 1.943-0.57 3.479-1.307 4.607-0.738 1.135-1.716 1.927-2.933 2.377-1.21 0.45-2.598 0.62-4.163 0.512zM105.25 3.07l-0.477-0.033c-0.477-0.033-0.813 0.047-1.006 0.241-0.187 0.194-0.297 0.536-0.331 1.027v0l-0.498 7.222c-0.033 0.484 0.029 0.838 0.186 1.062 0.164 0.225 0.485 0.353 0.963 0.387v0l0.508 0.035c1.559 0.107 2.792-0.191 3.7-0.895 0.909-0.71 1.428-2.007 1.557-3.89v0c0.087-1.267-0.041-2.258-0.384-2.976-0.337-0.723-0.863-1.249-1.581-1.578-0.717-0.329-1.596-0.53-2.637-0.602z" fill="#ffaa76" data-fill-palette-color="accent"></path><path d="M125.092 20.126v0c-1.18-0.369-2.147-0.876-2.899-1.522-0.75-0.652-1.241-1.457-1.472-2.413-0.232-0.95-0.15-2.06 0.246-3.329v0c0.595-1.904 1.533-3.191 2.816-3.863 1.282-0.672 2.733-0.755 4.351-0.25v0c1.053 0.329 1.883 0.794 2.489 1.394 0.611 0.609 1.003 1.302 1.178 2.081 0.173 0.785 0.126 1.603-0.139 2.454v0c-0.26 0.831-0.653 1.342-1.179 1.533-0.528 0.197-1.202 0.168-2.02-0.088v0l-4.483-1.401c-0.167 0.735-0.074 1.363 0.278 1.884 0.351 0.527 0.932 0.918 1.745 1.172v0c0.641 0.2 1.186 0.262 1.634 0.187 0.447-0.069 0.763-0.134 0.949-0.195v0c0.165-0.06 0.329-0.061 0.491-0.003v0c0.133 0.042 0.315 0.13 0.545 0.264 0.232 0.128 0.446 0.3 0.643 0.514v0c0.15 0.144 0.2 0.296 0.151 0.455v0c-0.03 0.095-0.089 0.219-0.179 0.372v0c-0.049 0.089-0.128 0.221-0.239 0.396-0.102 0.17-0.216 0.323-0.341 0.457v0c-0.068 0.062-0.158 0.114-0.268 0.157v0c-0.169 0.052-0.435 0.111-0.798 0.179-0.36 0.062-0.829 0.068-1.406 0.02-0.571-0.046-1.268-0.198-2.093-0.455zM124.63 12.575v0l3.407 1.064c0.355 0.111 0.585 0.002 0.688-0.328v0c0.155-0.495 0.129-0.959-0.077-1.393-0.204-0.44-0.617-0.757-1.239-0.951v0c-0.673-0.21-1.235-0.149-1.687 0.184-0.454 0.339-0.818 0.813-1.092 1.424z" fill="#ffaa76" data-fill-palette-color="accent"></path><path d="M140.061 25.328l-2.519-0.106c-0.166-0.01-0.279-0.03-0.339-0.06v0c-0.059-0.03-0.109-0.085-0.15-0.166v0c-0.097-0.176-0.136-0.517-0.119-1.022 0.012-0.508 0.234-1.186 0.664-2.033v0l5.745-11.309c0.081-0.16 0.176-0.265 0.283-0.315v0c0.459-0.214 1.059-0.398 1.801-0.55v0c0.122-0.02 0.219-0.012 0.29 0.024v0c0.083 0.042 0.146 0.115 0.19 0.22v0c0.173 0.364 0.308 0.686 0.404 0.966 0.099 0.289 0.17 0.56 0.213 0.813v0c0.023 0.116-0.006 0.254-0.087 0.414v0l-5.442 10.713c-0.22 0.433-0.371 0.818-0.454 1.156-0.082 0.338-0.123 0.624-0.121 0.856v0c0.004 0.271-0.116 0.404-0.359 0.399z" fill="#ffaa76" data-fill-palette-color="accent"></path><path d="M154.532 17.787v0c0.053-0.076 0.126-0.127 0.216-0.153 0.086-0.029 0.203-0.065 0.354-0.105v0c0.297-0.076 0.631-0.142 1.003-0.199 0.372-0.056 0.741-0.102 1.107-0.138v0c0.222-0.015 0.368 0.002 0.439 0.052v0c0.071 0.05 0.142 0.185 0.215 0.406v0c0.191 0.759 0.318 1.452 0.381 2.08v0c0.017 0.15 0.027 0.274 0.03 0.375 0.007 0.094-0.016 0.179-0.069 0.255v0c-0.057 0.082-0.131 0.135-0.222 0.161-0.091 0.026-0.214 0.057-0.37 0.094v0c-0.288 0.075-0.615 0.142-0.981 0.202-0.361 0.064-0.725 0.114-1.091 0.15v0c-0.137 0.01-0.234 0.01-0.293 0.001-0.06-0.018-0.112-0.042-0.156-0.072v0c-0.044-0.03-0.081-0.069-0.114-0.116-0.028-0.052-0.067-0.148-0.115-0.288v0c-0.102-0.364-0.183-0.724-0.241-1.082-0.064-0.361-0.109-0.697-0.135-1.007v0c-0.017-0.15-0.026-0.27-0.028-0.36-0.011-0.089 0.012-0.174 0.07-0.256zM155.336 23.559l-5.769 8.243c-0.126 0.18-0.25 0.276-0.372 0.288-0.126 0.017-0.279-0.037-0.458-0.163v0l-1.847-1.292c-0.18-0.126-0.283-0.251-0.309-0.375-0.03-0.119 0.017-0.268 0.143-0.447v0l5.769-8.243c0.126-0.18 0.252-0.278 0.377-0.296 0.122-0.012 0.273 0.045 0.453 0.171v0l1.846 1.292c0.18 0.126 0.285 0.248 0.316 0.367 0.027 0.124-0.023 0.276-0.149 0.455z" fill="#ffaa76" data-fill-palette-color="accent"></path><path d="M170.174 37.909v0l-6.293 6.272c-1.511 1.506-3.092 2.223-4.742 2.149-1.655-0.069-3.228-0.852-4.72-2.348v0c-0.619-0.622-1.063-1.161-1.33-1.617-0.272-0.452-0.462-0.812-0.57-1.08v0c-0.056-0.179-0.072-0.317-0.048-0.416v0c0.028-0.132 0.092-0.308 0.191-0.529 0.094-0.225 0.21-0.463 0.347-0.711v0c0.057-0.085 0.108-0.141 0.155-0.169v0c0.071-0.033 0.162-0.049 0.275-0.049v0c0.188 0 0.43 0.027 0.726 0.079 0.301 0.048 0.512 0.1 0.635 0.156v0c0.136 0.061 0.223 0.158 0.26 0.289v0c0.061 0.202 0.173 0.475 0.337 0.819 0.155 0.343 0.459 0.743 0.915 1.2v0c0.723 0.725 1.498 1.126 2.325 1.203 0.827 0.086 1.629-0.258 2.406-1.033v0l0.275-0.274-0.028-0.029c-0.259 0.032-0.555 0.032-0.888-0.001-0.324-0.033-0.681-0.142-1.072-0.326-0.39-0.184-0.81-0.502-1.26-0.954v0c-0.779-0.782-1.248-1.591-1.406-2.428-0.158-0.837-0.058-1.669 0.3-2.496 0.359-0.827 0.919-1.62 1.682-2.38v0c0.833-0.831 1.718-1.44 2.654-1.829 0.931-0.384 1.914-0.443 2.948-0.178 1.029 0.26 2.104 0.953 3.226 2.078v0c0.671 0.673 1.185 1.288 1.541 1.843 0.356 0.555 0.616 1.061 0.78 1.517 0.168 0.452 0.295 0.865 0.379 1.242zM165.511 35.095v0c-0.601-0.603-1.261-0.86-1.98-0.772-0.715 0.083-1.498 0.55-2.351 1.399v0c-1.328 1.323-1.445 2.534-0.351 3.631v0c0.427 0.428 0.843 0.671 1.247 0.728 0.404 0.048 0.797-0.006 1.177-0.16v0l3.207-3.196c-0.033-0.193-0.114-0.43-0.246-0.712-0.136-0.278-0.37-0.584-0.703-0.918z" fill="#ffaa76" data-fill-palette-color="accent"></path><path d="M175.676 50.22l-5.742 3.663c-0.185 0.118-0.336 0.159-0.453 0.124-0.123-0.032-0.243-0.14-0.362-0.326v0l-1.212-1.899c-0.118-0.185-0.166-0.34-0.143-0.465 0.017-0.121 0.118-0.241 0.304-0.359v0l12.5-7.975c0.151-0.097 0.286-0.139 0.404-0.128v0c0.504 0.049 1.115 0.196 1.831 0.441v0c0.115 0.045 0.194 0.101 0.237 0.168v0c0.05 0.078 0.068 0.174 0.052 0.286v0c-0.036 0.401-0.083 0.747-0.142 1.037-0.061 0.299-0.138 0.569-0.23 0.809v0c-0.039 0.112-0.134 0.216-0.285 0.312v0l-4.481 2.859 0.021 0.033c0.265 0.02 0.557 0.082 0.876 0.187 0.321 0.095 0.657 0.282 1.01 0.562 0.356 0.286 0.712 0.709 1.07 1.269v0c0.361 0.566 0.59 1.185 0.687 1.857 0.101 0.677-0.021 1.358-0.365 2.042-0.338 0.681-0.989 1.329-1.953 1.944v0l-5.397 3.443c-0.185 0.118-0.334 0.162-0.448 0.132-0.123-0.032-0.243-0.14-0.362-0.325v0l-1.212-1.9c-0.118-0.185-0.166-0.34-0.142-0.465 0.017-0.121 0.118-0.241 0.303-0.359v0l4.892-3.121c0.684-0.436 1.09-0.893 1.22-1.37 0.132-0.486 0.042-0.973-0.269-1.46v0c-0.307-0.482-0.652-0.787-1.033-0.915-0.375-0.131-0.768-0.165-1.176-0.101z" fill="#ffaa76" data-fill-palette-color="accent"></path><path d="M190.921 69.856l-11.579 4.016c-0.207 0.072-0.364 0.077-0.47 0.015-0.11-0.053-0.201-0.184-0.272-0.391v0l-0.765-2.205c-0.072-0.207-0.082-0.369-0.031-0.485 0.045-0.114 0.171-0.207 0.378-0.279v0l11.579-4.015-1.068-3.081c-0.059-0.17-0.074-0.305-0.046-0.406v0c0.065-0.219 0.148-0.456 0.25-0.71 0.104-0.247 0.241-0.523 0.409-0.828v0c0.064-0.1 0.124-0.159 0.181-0.178v0c0.063-0.022 0.144-0.011 0.243 0.031v0c0.315 0.137 0.593 0.269 0.834 0.397 0.237 0.136 0.449 0.27 0.636 0.402v0c0.091 0.081 0.163 0.197 0.215 0.348v0l3.303 9.525c0.057 0.163 0.071 0.296 0.043 0.397v0c-0.062 0.226-0.145 0.465-0.247 0.718-0.108 0.256-0.245 0.532-0.409 0.828v0c-0.064 0.1-0.124 0.159-0.181 0.179v0c-0.063 0.022-0.144 0.011-0.243-0.032v0c-0.319-0.129-0.597-0.261-0.834-0.396-0.237-0.136-0.45-0.273-0.639-0.412v0c-0.089-0.075-0.16-0.187-0.212-0.338v0z" fill="#ffaa76" data-fill-palette-color="accent"></path><path d="M18.929 127.374v0l-2.606 0.856 1.331 4.055c0.06 0.183 0.073 0.329 0.039 0.438v0c-0.066 0.246-0.163 0.505-0.29 0.778-0.119 0.277-0.273 0.576-0.462 0.896v0c-0.076 0.109-0.143 0.173-0.199 0.192v0c-0.069 0.023-0.158 0.01-0.265-0.039v0c-0.342-0.147-0.646-0.295-0.912-0.446-0.258-0.146-0.486-0.299-0.686-0.457v0c-0.098-0.087-0.175-0.212-0.228-0.377v0l-1.331-4.055-5.741 1.885c-0.227 0.075-0.401 0.079-0.521 0.013-0.12-0.066-0.217-0.212-0.291-0.44v0l-0.799-2.434c-0.075-0.227-0.083-0.403-0.026-0.527 0.057-0.124 0.2-0.223 0.427-0.298v0l12.705-4.17c0.764-0.251 1.39-0.379 1.878-0.385 0.494-0.008 0.903 0.162 1.228 0.51 0.328 0.34 0.621 0.902 0.878 1.685v0l1.769 5.391c0.06 0.183 0.074 0.333 0.042 0.448v0c-0.068 0.239-0.162 0.497-0.281 0.774-0.127 0.273-0.284 0.573-0.471 0.9v0c-0.07 0.107-0.136 0.171-0.199 0.191v0c-0.069 0.023-0.158 0.01-0.265-0.039v0c-0.344-0.153-0.645-0.303-0.903-0.449-0.266-0.15-0.498-0.302-0.695-0.454v0c-0.098-0.087-0.176-0.215-0.231-0.386v0l-1.057-3.221c-0.164-0.499-0.383-0.805-0.658-0.917-0.269-0.115-0.662-0.087-1.18 0.082z" fill="#ffaa76" data-fill-palette-color="accent"></path><path d="M16.511 151.748v0c-0.867-1.426-1.347-2.83-1.441-4.212-0.092-1.392 0.238-2.712 0.987-3.962 0.75-1.249 1.948-2.375 3.595-3.377v0c2.624-1.596 4.971-2.144 7.041-1.644 2.067 0.494 3.796 1.885 5.188 4.174v0c1.302 2.141 1.701 4.217 1.197 6.228-0.51 2.014-2.003 3.774-4.48 5.281v0c-1.749 1.064-3.371 1.653-4.865 1.768-1.494 0.115-2.847-0.198-4.061-0.939-1.209-0.735-2.263-1.841-3.161-3.317zM19.316 150.123v0c0.75 1.233 1.749 1.878 2.998 1.936 1.243 0.061 2.569-0.337 3.977-1.194v0c1.636-0.995 2.695-2.024 3.176-3.087 0.482-1.063 0.344-2.217-0.412-3.46v0c-1.496-2.459-3.862-2.705-7.1-0.736v0c-1.448 0.881-2.436 1.886-2.963 3.015-0.523 1.135-0.415 2.311 0.324 3.526z" fill="#ffaa76" data-fill-palette-color="accent"></path><path d="M32.37 171.095v0c-1.204-1.155-2.029-2.389-2.474-3.7-0.446-1.321-0.467-2.682-0.064-4.082 0.403-1.4 1.273-2.796 2.607-4.187v0c2.126-2.216 4.254-3.349 6.383-3.398 2.124-0.053 4.153 0.847 6.086 2.702v0c1.809 1.735 2.727 3.639 2.756 5.711 0.024 2.078-0.967 4.162-2.973 6.254v0c-1.417 1.478-2.833 2.464-4.248 2.959-1.414 0.495-2.803 0.54-4.165 0.136-1.358-0.4-2.66-1.198-3.908-2.395zM34.664 168.805v0c1.041 0.999 2.172 1.365 3.394 1.1 1.217-0.26 2.396-0.985 3.538-2.175v0c1.325-1.382 2.084-2.648 2.276-3.799 0.192-1.151-0.237-2.231-1.287-3.239v0c-2.077-1.993-4.427-1.622-7.051 1.113v0c-1.174 1.223-1.87 2.448-2.088 3.675-0.214 1.232 0.192 2.34 1.218 3.325z" fill="#ffaa76" data-fill-palette-color="accent"></path><path d="M52.094 185.133l-3.215-1.809c-0.718-0.404-1.213-0.8-1.483-1.188-0.272-0.397-0.357-0.837-0.252-1.321 0.104-0.483 0.348-1.066 0.732-1.75v0l5.29-9.403c0.394-0.701 0.769-1.219 1.125-1.553 0.359-0.34 0.776-0.49 1.25-0.452 0.472 0.029 1.067 0.246 1.785 0.649v0l3.216 1.809c1.501 0.844 2.69 1.807 3.569 2.889 0.879 1.082 1.331 2.332 1.358 3.75 0.032 1.421-0.474 3.059-1.517 4.913v0c-1.046 1.86-2.201 3.174-3.465 3.943-1.261 0.778-2.6 1.104-4.017 0.978-1.417-0.126-2.875-0.611-4.376-1.455zM58.228 172.44l-0.461-0.259c-0.458-0.257-0.826-0.335-1.105-0.233-0.276 0.097-0.547 0.383-0.814 0.858v0l-3.892 6.918c-0.261 0.464-0.364 0.844-0.31 1.141 0.054 0.297 0.31 0.575 0.768 0.833v0l0.486 0.273c1.495 0.841 2.856 1.126 4.084 0.856 1.237-0.273 2.363-1.313 3.38-3.121v0c0.678-1.205 1.016-2.247 1.015-3.125 0.004-0.875-0.272-1.644-0.83-2.309-0.551-0.661-1.325-1.272-2.321-1.832z" fill="#ffaa76" data-fill-palette-color="accent"></path><path d="M72.252 176.589v0c0.031-0.095 0.091-0.173 0.182-0.234 0.088-0.055 0.199-0.127 0.333-0.216v0c0.293-0.17 0.626-0.344 0.999-0.524 0.367-0.181 0.737-0.35 1.11-0.508v0c0.231-0.086 0.39-0.114 0.479-0.085v0c0.095 0.031 0.213 0.15 0.356 0.358v0c0.438 0.737 0.793 1.427 1.065 2.068v0c0.064 0.147 0.114 0.272 0.151 0.374 0.036 0.103 0.039 0.202 0.008 0.297v0c-0.033 0.101-0.093 0.179-0.181 0.234-0.088 0.055-0.206 0.128-0.355 0.22v0c-0.287 0.172-0.611 0.35-0.972 0.532-0.358 0.177-0.723 0.341-1.094 0.493v0c-0.136 0.053-0.241 0.086-0.315 0.096-0.065 0.007-0.126 0.001-0.183-0.018v0c-0.051-0.017-0.1-0.047-0.148-0.09-0.047-0.05-0.119-0.14-0.217-0.27v0c-0.223-0.346-0.424-0.694-0.602-1.046-0.177-0.358-0.331-0.699-0.463-1.022v0c-0.056-0.151-0.103-0.275-0.141-0.372-0.04-0.09-0.044-0.186-0.012-0.287zM74.933 182.385l-3.423 10.484c-0.074 0.227-0.173 0.37-0.297 0.427-0.124 0.058-0.299 0.049-0.527-0.025v0l-2.351-0.768c-0.227-0.074-0.374-0.171-0.44-0.29-0.066-0.119-0.062-0.293 0.013-0.521v0l3.423-10.484c0.074-0.227 0.173-0.37 0.297-0.427 0.124-0.058 0.299-0.049 0.527 0.025v0l2.351 0.768c0.227 0.074 0.374 0.171 0.44 0.29 0.066 0.119 0.062 0.293-0.013 0.521z" fill="#ffaa76" data-fill-palette-color="accent"></path><path d="M86.003 196.673v0c-1.342-0.199-2.477-0.589-3.405-1.17-0.923-0.574-1.59-1.358-2.001-2.353-0.418-0.989-0.52-2.207-0.305-3.654v0c0.321-2.163 1.118-3.715 2.393-4.656 1.276-0.947 2.831-1.284 4.666-1.012v0c1.197 0.177 2.178 0.541 2.944 1.091 0.765 0.55 1.309 1.236 1.63 2.057 0.323 0.814 0.413 1.704 0.27 2.67v0c-0.139 0.94-0.48 1.562-1.022 1.865-0.536 0.304-1.267 0.387-2.194 0.25v0l-5.1-0.756c-0.062 0.824 0.146 1.49 0.621 1.997 0.469 0.506 1.164 0.828 2.085 0.965v0c0.73 0.108 1.328 0.086 1.794-0.067 0.473-0.152 0.808-0.28 1.005-0.386v0c0.167-0.083 0.345-0.107 0.535-0.072v0c0.151 0.022 0.361 0.084 0.628 0.184 0.274 0.101 0.537 0.251 0.79 0.45v0c0.182 0.134 0.259 0.29 0.233 0.468v0c-0.016 0.105-0.057 0.25-0.125 0.435v0c-0.036 0.109-0.1 0.264-0.19 0.466-0.084 0.203-0.182 0.386-0.293 0.551v0c-0.066 0.084-0.155 0.159-0.265 0.223v0c-0.174 0.088-0.452 0.195-0.834 0.32-0.382 0.132-0.886 0.222-1.511 0.27-0.632 0.048-1.415 0.002-2.349-0.136zM84.21 188.564v0l3.877 0.575c0.401 0.059 0.629-0.098 0.685-0.473v0c0.084-0.566-0.02-1.065-0.313-1.498-0.299-0.434-0.8-0.703-1.503-0.808v0c-0.769-0.114-1.371 0.046-1.805 0.479-0.435 0.44-0.748 1.015-0.941 1.725z" fill="#ffaa76" data-fill-palette-color="accent"></path><path d="M106.713 196.695l-3.679 0.278c-0.822 0.062-1.453 0.007-1.893-0.167-0.447-0.18-0.761-0.499-0.942-0.959-0.181-0.46-0.302-1.081-0.361-1.862v0l-0.814-10.759c-0.061-0.802-0.036-1.441 0.075-1.916 0.11-0.482 0.373-0.838 0.789-1.069 0.409-0.238 1.024-0.387 1.846-0.45v0l3.679-0.278c1.717-0.13 3.241 0.011 4.572 0.424 1.331 0.413 2.401 1.202 3.209 2.367 0.815 1.165 1.303 2.808 1.463 4.929v0c0.161 2.128-0.071 3.862-0.696 5.203-0.618 1.347-1.551 2.361-2.8 3.042-1.248 0.681-2.731 1.087-4.448 1.217zM104.776 182.731l-0.527 0.04c-0.524 0.04-0.873 0.179-1.048 0.419-0.176 0.233-0.243 0.622-0.202 1.165v0l0.599 7.915c0.04 0.53 0.165 0.904 0.375 1.122 0.21 0.217 0.577 0.306 1.1 0.267v0l0.557-0.043c1.71-0.129 3.001-0.647 3.873-1.553 0.878-0.913 1.238-2.404 1.081-4.471v0c-0.104-1.379-0.401-2.433-0.889-3.163-0.482-0.73-1.139-1.217-1.971-1.461-0.825-0.244-1.808-0.323-2.948-0.237z" fill="#ffaa76" data-fill-palette-color="accent"></path><path d="M129.73 192.305v0c-1.291 0.415-2.482 0.567-3.571 0.457-1.082-0.106-2.026-0.515-2.834-1.226-0.812-0.703-1.442-1.75-1.89-3.143v0c-0.669-2.082-0.64-3.827 0.088-5.233 0.726-1.413 1.972-2.404 3.738-2.972v0c1.152-0.37 2.193-0.478 3.122-0.322 0.93 0.155 1.72 0.53 2.372 1.123 0.65 0.587 1.124 1.346 1.423 2.277v0c0.291 0.905 0.26 1.613-0.093 2.124-0.346 0.509-0.965 0.907-1.857 1.194v0l-4.909 1.577c0.309 0.766 0.789 1.272 1.441 1.517 0.645 0.247 1.41 0.228 2.296-0.057v0c0.703-0.226 1.229-0.51 1.58-0.854 0.357-0.345 0.601-0.608 0.731-0.789v0c0.113-0.148 0.262-0.248 0.448-0.302v0c0.146-0.047 0.36-0.084 0.644-0.112 0.29-0.03 0.593-0.012 0.908 0.054v0c0.222 0.04 0.361 0.146 0.416 0.316v0c0.033 0.101 0.059 0.25 0.08 0.446v0c0.016 0.114 0.027 0.281 0.036 0.502 0.014 0.219 0.008 0.427-0.02 0.624v0c-0.022 0.105-0.069 0.211-0.139 0.317v0c-0.117 0.156-0.319 0.375-0.606 0.655-0.285 0.287-0.697 0.591-1.237 0.911-0.546 0.322-1.268 0.627-2.167 0.916zM124.537 185.825v0l3.731-1.199c0.386-0.124 0.521-0.366 0.406-0.727v0c-0.175-0.544-0.489-0.946-0.943-1.205-0.46-0.257-1.028-0.277-1.705-0.06v0c-0.741 0.238-1.21 0.647-1.407 1.228-0.196 0.587-0.223 1.241-0.082 1.963z" fill="#ffaa76" data-fill-palette-color="accent"></path><path d="M145.267 184.313l-1.705 2.162c-0.121 0.144-0.213 0.232-0.279 0.265v0c-0.059 0.03-0.139 0.041-0.24 0.034v0c-0.22-0.037-0.551-0.222-0.991-0.557-0.434-0.338-0.889-0.971-1.365-1.9v0l-6.339-12.383c-0.088-0.172-0.121-0.323-0.098-0.454v0c0.096-0.542 0.317-1.189 0.664-1.941v0c0.064-0.123 0.135-0.203 0.212-0.243v0c0.095-0.048 0.202-0.058 0.321-0.03v0c0.429 0.079 0.801 0.165 1.117 0.257 0.313 0.101 0.595 0.214 0.846 0.34v0c0.119 0.058 0.223 0.173 0.311 0.345v0l6.007 11.734c0.239 0.467 0.485 0.846 0.738 1.135 0.247 0.292 0.475 0.511 0.684 0.658v0c0.245 0.173 0.284 0.366 0.117 0.578z" fill="#ffaa76" data-fill-palette-color="accent"></path><path d="M143.11 167.464v0c-0.057-0.082-0.083-0.177-0.077-0.287 0.009-0.103 0.019-0.235 0.029-0.396v0c0.042-0.336 0.104-0.707 0.187-1.112 0.077-0.402 0.166-0.799 0.266-1.192v0c0.071-0.235 0.145-0.38 0.221-0.433v0c0.082-0.057 0.248-0.079 0.5-0.067v0c0.852 0.097 1.616 0.23 2.292 0.401v0c0.156 0.038 0.285 0.073 0.389 0.106 0.104 0.033 0.184 0.091 0.241 0.172v0c0.061 0.087 0.086 0.183 0.077 0.287-0.009 0.103-0.022 0.242-0.039 0.415v0c-0.036 0.333-0.09 0.698-0.162 1.096-0.076 0.392-0.165 0.782-0.269 1.169v0c-0.04 0.141-0.078 0.244-0.114 0.31-0.034 0.056-0.076 0.101-0.124 0.135v0c-0.044 0.03-0.098 0.052-0.162 0.063-0.068 0.007-0.183 0.01-0.346 0.01v0c-0.41-0.031-0.809-0.082-1.198-0.153-0.392-0.076-0.757-0.159-1.094-0.248v0c-0.154-0.047-0.281-0.084-0.381-0.112-0.096-0.022-0.175-0.077-0.236-0.164zM149.348 168.829l6.285 9.063c0.136 0.197 0.19 0.362 0.161 0.495-0.029 0.133-0.142 0.268-0.338 0.404v0l-2.032 1.409c-0.197 0.136-0.362 0.195-0.498 0.176-0.135-0.02-0.271-0.128-0.407-0.325v0l-6.285-9.063c-0.136-0.197-0.19-0.362-0.161-0.495 0.029-0.133 0.142-0.268 0.339-0.404v0l2.032-1.409c0.197-0.136 0.362-0.195 0.497-0.175 0.135 0.02 0.271 0.128 0.407 0.324z" fill="#ffaa76" data-fill-palette-color="accent"></path><path d="M163.553 156.337v0l6.842 6.936c1.643 1.666 2.419 3.403 2.327 5.212-0.087 1.814-0.957 3.536-2.608 5.165v0c-0.686 0.677-1.277 1.162-1.773 1.455-0.5 0.288-0.899 0.49-1.195 0.605v0c-0.188 0.065-0.339 0.082-0.452 0.053v0c-0.145-0.034-0.34-0.103-0.584-0.208-0.248-0.11-0.506-0.238-0.773-0.386v0c-0.098-0.062-0.161-0.116-0.189-0.163v0c-0.032-0.08-0.048-0.186-0.047-0.318v0c0.001-0.197 0.031-0.46 0.089-0.789 0.054-0.324 0.112-0.559 0.174-0.704v0c0.071-0.145 0.178-0.236 0.32-0.273v0c0.226-0.064 0.528-0.184 0.905-0.36 0.373-0.171 0.81-0.505 1.311-1v0c0.8-0.789 1.247-1.637 1.342-2.543 0.095-0.907-0.279-1.788-1.124-2.645v0l-0.301-0.305-0.036 0.035c0.036 0.282 0.034 0.607-0.006 0.973-0.035 0.362-0.156 0.756-0.361 1.182-0.205 0.426-0.554 0.882-1.045 1.368v0c-0.861 0.85-1.753 1.361-2.676 1.533-0.918 0.168-1.831 0.051-2.741-0.35-0.905-0.396-1.77-1.013-2.596-1.851v0c-0.906-0.918-1.567-1.891-1.983-2.918-0.421-1.032-0.482-2.112-0.183-3.238 0.29-1.126 1.054-2.301 2.294-3.524v0c0.743-0.733 1.419-1.293 2.028-1.679 0.614-0.391 1.168-0.676 1.663-0.856 0.499-0.175 0.959-0.311 1.378-0.407zM160.43 161.436v0c-0.663 0.654-0.949 1.376-0.861 2.166 0.093 0.786 0.602 1.647 1.527 2.584v0c1.447 1.467 2.774 1.605 3.981 0.414v0c0.473-0.467 0.74-0.921 0.799-1.362 0.059-0.441 0.006-0.874-0.16-1.299v0l-3.488-3.535c-0.216 0.036-0.478 0.126-0.784 0.27-0.307 0.144-0.644 0.398-1.014 0.762z" fill="#ffaa76" data-fill-palette-color="accent"></path><path d="M172.281 149.33l6.253 4.067c0.201 0.13 0.313 0.263 0.337 0.397 0.024 0.134-0.03 0.302-0.16 0.502v0l-1.349 2.074c-0.13 0.201-0.262 0.317-0.394 0.35-0.132 0.033-0.299-0.016-0.499-0.147v0l-13.626-8.861c-0.162-0.105-0.265-0.22-0.311-0.345v0c-0.187-0.518-0.317-1.189-0.391-2.014v0c-0.005-0.138 0.016-0.244 0.063-0.316v0c0.058-0.089 0.146-0.151 0.263-0.186v0c0.411-0.145 0.777-0.256 1.097-0.333 0.322-0.068 0.623-0.11 0.903-0.127v0c0.133-0.009 0.28 0.039 0.441 0.145v0l4.882 3.174 0.028-0.041c-0.097-0.277-0.167-0.596-0.211-0.958-0.048-0.365-0.011-0.788 0.113-1.271 0.12-0.477 0.379-1.022 0.778-1.635v0c0.402-0.619 0.916-1.129 1.543-1.53 0.63-0.407 1.363-0.596 2.2-0.567 0.837 0.029 1.78 0.384 2.828 1.065v0l5.885 3.828c0.201 0.13 0.313 0.263 0.337 0.397 0.024 0.134-0.032 0.305-0.166 0.511v0l-1.348 2.073c-0.13 0.201-0.262 0.317-0.395 0.35-0.132 0.033-0.299-0.016-0.499-0.147v0l-5.325-3.462c-0.747-0.486-1.392-0.683-1.935-0.592-0.539 0.085-0.981 0.393-1.325 0.922v0c-0.341 0.524-0.491 1.005-0.451 1.443 0.04 0.438 0.185 0.85 0.435 1.234z" fill="#ffaa76" data-fill-palette-color="accent"></path><path d="M176.691 126.39l12.658 4.493c0.226 0.08 0.365 0.183 0.42 0.308 0.054 0.125 0.042 0.3-0.039 0.526v0l-0.857 2.415c-0.08 0.226-0.181 0.37-0.302 0.433-0.121 0.063-0.294 0.054-0.52-0.026v0l-12.658-4.493-1.197 3.374c-0.064 0.182-0.145 0.308-0.241 0.38v0c-0.2 0.148-0.435 0.29-0.702 0.428-0.261 0.14-0.567 0.286-0.917 0.436v0c-0.127 0.04-0.219 0.049-0.275 0.03v0c-0.069-0.024-0.131-0.089-0.185-0.193v0c-0.176-0.338-0.325-0.644-0.446-0.92-0.115-0.273-0.203-0.531-0.266-0.772v0c-0.025-0.129-0.007-0.278 0.053-0.447v0l3.696-10.412c0.064-0.182 0.145-0.308 0.24-0.38v0c0.2-0.148 0.433-0.294 0.696-0.441 0.268-0.138 0.575-0.279 0.923-0.423v0c0.121-0.042 0.212-0.052 0.275-0.03v0c0.069 0.024 0.131 0.089 0.186 0.193v0c0.179 0.331 0.325 0.634 0.44 0.907 0.119 0.282 0.209 0.543 0.271 0.785v0c0.025 0.129 0.007 0.278-0.052 0.446v0z" fill="#ffaa76" data-fill-palette-color="accent"></path><path d="M1.554 100.368c0-3.635 2.947-6.582 6.582-6.582 3.635 0 6.582 2.947 6.582 6.582 0 3.635-2.947 6.582-6.582 6.583-3.635 0-6.582-2.947-6.582-6.583z" fill="#ffaa76" data-fill-palette-color="accent"></path><path d="M182.279 100.368c0-3.635 2.947-6.582 6.583-6.582 3.635 0 6.582 2.947 6.582 6.582 0 3.635-2.947 6.582-6.582 6.583-3.635 0-6.582-2.947-6.583-6.583z" fill="#ffaa76" data-fill-palette-color="accent"></path></g><g id="text-1"></g></svg></g></svg></g></svg></g><defs></defs></svg><rect width="395.52" height="124.73563233681716" fill="none" stroke="none" visibility="hidden"></rect></g></svg></g></svg>